<svg xmlns="http://www.w3.org/2000/svg" width="128" height="114" viewBox="0 0 128 128"><g fill="none" fill-rule="evenodd"><path fill="#222" d="M124.367 26.862c-1.45-5.457-5.718-9.753-11.14-11.212C103.401 13 64 13 64 13s-39.401 0-49.227 2.65c-5.421 1.459-9.69 5.755-11.14 11.212C1 36.752 1 57.386 1 57.386S1 78.02 3.633 87.911c1.45 5.456 5.719 9.753 11.14 11.212 9.826 2.65 49.227 2.65 49.227 2.65s39.401 0 49.227-2.65c5.422-1.459 9.69-5.756 11.14-11.212C127 78.021 127 57.386 127 57.386s0-20.634-2.633-30.524"/><path fill="#FFFFFE" d="M51.114 76.121l32.931-18.734-32.931-18.735v37.469"/></g></svg>